/* XPM */
static char *_c058d9bfa4f41f0843ecc594f7a99e7itZjlDfD4ZBAr9Yr[] = {
/* columns rows colors chars-per-pixel */
"32 32 209 2 ",
"   c #1A1613",
".  c #1B1916",
"X  c #1E1E1C",
"o  c #171612",
"O  c #261D17",
"+  c #231E1C",
"@  c #2A1E19",
"#  c #331E1A",
"$  c #1F211F",
"%  c #23221E",
"&  c #2C221D",
"*  c #33241E",
"=  c #3B251D",
"-  c #32281E",
";  c #1F2120",
":  c #242323",
">  c #2C2521",
",  c #262825",
"<  c #2D2926",
"1  c #2D2D2A",
"2  c #252728",
"3  c #332722",
"4  c #3B2621",
"5  c #342A24",
"6  c #3C2B23",
"7  c #342D29",
"8  c #3D2E29",
"9  c #35312D",
"0  c #3D332D",
"q  c #3D3B29",
"w  c #333430",
"e  c #3B3530",
"r  c #3D3C34",
"t  c #373A39",
"y  c #432C24",
"u  c #4A2D24",
"i  c #422F29",
"p  c #492E2A",
"a  c #442626",
"s  c #522F2D",
"d  c #4B3126",
"f  c #44332B",
"g  c #4C332A",
"h  c #423C2E",
"j  c #4B392F",
"k  c #443027",
"l  c #52352C",
"z  c #54392D",
"x  c #583C2E",
"c  c #58322F",
"v  c #423630",
"b  c #4B3731",
"n  c #443B33",
"m  c #4C3B34",
"M  c #433D38",
"N  c #4A3F39",
"B  c #5B3531",
"V  c #543D33",
"C  c #5B3D32",
"Z  c #513F38",
"A  c #633E3B",
"S  c #334039",
"D  c #4D4237",
"F  c #44413C",
"G  c #4D433C",
"H  c #564334",
"J  c #5D4235",
"K  c #53443A",
"L  c #5B443B",
"P  c #54493E",
"I  c #5C493E",
"U  c #524A37",
"Y  c #5A543C",
"T  c #545035",
"R  c #62443A",
"E  c #654A3D",
"W  c #6B4B3E",
"Q  c #654138",
"!  c #6D523F",
"~  c #63563B",
"^  c #3F4F44",
"/  c #356A5C",
"(  c #4C4440",
")  c #4C4A47",
"_  c #4C4C49",
"`  c #434748",
"'  c #534940",
"]  c #5D4B42",
"[  c #504D48",
"{  c #5C544C",
"}  c #58514A",
"|  c #535454",
" . c #5D5C55",
".. c #5A5753",
"X. c #495E55",
"o. c #644E43",
"O. c #6C4D41",
"+. c #724E44",
"@. c #635144",
"#. c #6C5245",
"$. c #64524A",
"%. c #6B534C",
"&. c #6B5B4B",
"*. c #685C42",
"=. c #745444",
"-. c #775E46",
";. c #74564B",
":. c #755A4C",
">. c #7C5C4B",
",. c #7A5A47",
"<. c #655D55",
"1. c #6D5C52",
"2. c #645F59",
"3. c #735C50",
"4. c #7B5E50",
"5. c #436159",
"6. c #5F605A",
"7. c #7E634E",
"8. c #7A6145",
"9. c #64645D",
"0. c #6E655C",
"q. c #696152",
"w. c #7B6355",
"e. c #72695C",
"r. c #79675A",
"t. c #6C6A64",
"y. c #686765",
"u. c #726C63",
"i. c #786E68",
"p. c #6D726C",
"a. c #7B7367",
"s. c #73736C",
"d. c #79756C",
"f. c #757673",
"g. c #7A7A76",
"h. c #757777",
"j. c #6F7779",
"k. c #825D4C",
"l. c #825E50",
"z. c #82624E",
"x. c #8B624E",
"c. c #91644F",
"v. c #846453",
"b. c #8B6654",
"n. c #856A54",
"m. c #8B6956",
"M. c #8A675A",
"N. c #84695A",
"B. c #8C6B5A",
"V. c #826658",
"C. c #946C55",
"Z. c #916C5B",
"A. c #94725E",
"S. c #9C755E",
"D. c #9E7558",
"F. c #A67A5E",
"G. c #A5785B",
"H. c #8E7962",
"J. c #827569",
"K. c #8C7D6C",
"L. c #84776B",
"P. c #997361",
"I. c #937A64",
"U. c #927F6C",
"Y. c #997B64",
"T. c #897F74",
"R. c #817A70",
"E. c #A27B63",
"W. c #3B9178",
"Q. c #6D8877",
"!. c #84837E",
"~. c #8B837B",
"^. c #878476",
"/. c #9C8E7D",
"(. c #958776",
"). c #99876F",
"_. c #A68367",
"`. c #AA957C",
"'. c #BC9775",
"]. c #C79F7B",
"[. c #C7A079",
"{. c #2EA086",
"}. c #739F8F",
"|. c #70A595",
" X c #79B4A4",
".X c #8C8B85",
"XX c #878783",
"oX c #938C82",
"OX c #968F86",
"+X c #9B958B",
"@X c #9C988E",
"#X c #989384",
"$X c #969793",
"%X c #9A9992",
"&X c #999490",
"*X c #AE9982",
"=X c #A49786",
"-X c #B19C82",
";X c #A49D92",
":X c #B8A287",
">X c #A8A497",
",X c #BEB7AF",
"<X c #CFAE90",
"1X c #C0B0A1",
"2X c #D2B7A2",
"3X c #CEC4B7",
"4X c #D2C9BA",
"5X c #D4CDC3",
"6X c #D6D0C4",
/* pixels */
"[ 9.s.y.&X,X5X5X5X5X5X6X5X3X*Xr.9 9 0 9 < , 2 : 2 1 , 2 : : 2 2 ",
"F t.y. ._ F 9.@X3X5X5X5X4X2X'.] n :.#.R N 9 , < , : : : $ ; : 2 ",
"<.u.2.} 9 1 1 w 0.#X1X2X<X[.&.D v.m.v.,.Z 0 7 < % X % : : 2 2 1 ",
"0.u.{ F 1 9 G w e.H.'.].'.A.D w.A.Z.v.7.;.L n 7 + X : % : : : < ",
"0.<.( e F 9 9 D Y.'._.v.n.N :.N.B.A.B.=.;.;.I n : % % X X : : 2 ",
"e.{ 0 G P N @.m._.E.:.> h n M n n ] w.:.#.%.3.$.7 : + % > : : : ",
"q.P 7 0 K j -.S.A.A.I K @.o.$.$.M 1 ] 3.%.#.@.%.o.h 8 v 0 < : : ",
"&.n h n Y 7.S.A.B.n.#.V.;.@.$.&.3.M 9 1.3.;.#.R I $.L m m f 5 : ",
"Y Y *.T n.S.C.m.v.=.B.w.L { ..N ] 1.7 $.N.w.:.#.o.L L V b b i 7 ",
"q h U 8.F.C.v.7.:.#.I.v.$.i.) 1 n $.> N 3.w.w.%.@.] L V b f f 7 ",
"5 q 8.F.C.z.>.=.! B.#X^.e.<.( 7 D N 3 7 0 $.$.G n N K H j f 8 5 ",
"5 =.F.C.k.,.=.J ,.E.^. X|.Q.9.' K 6 b m 7 > 0 e < : 7 j b f 8 5 ",
">.G.C.>.=.! C V Z.E.A.s.}. X}.9.o.v.R i & 5 n K K e % % k f i 5 ",
"D.b.,.,.W x - #.A.S.P.Z.V.r.r.z.E.x.J 3 @ 3 n N K L M : > 6 6 3 ",
"x.,.=.O.C 6 O >.Z.Z.Z.Z.B.B.S.E.c.=.z & % > n G 0 N I 0 < 3 4 @ ",
",.=.W x y - 6 b.m.b.M.M.M.P.P.b.=.W i t / S M ) % & m Z > X & . ",
"=.W x y H H ! b.b.v.v.m.b.=.B.v.W Q = r / {.X.7 + 5 3 Z 3     o ",
"E x y H -.*.z.b.l.>.z.k.+.R ;.E R l = f 5.W.^ v 5 5 > 0 & = & o ",
"z y 4 ~ ~ *.z.v.O.L L V g V R i f x y j Z r 6 n k 8 > 3 4 6 -   ",
"& & 0 q.(.=XB.>.L L W R V L i * 4 p V E E V 8 4 4 5 = 6 y 6 O   ",
"r s.;X>X+XoXv.,.=.A c A R L 3 & 4 l R #.W W J C x z g d y &   + ",
"OX$X;X+X+X+Xv.>.k.+.B c B B 6 & 4 g E #.W W C C x z d d y O @ 5 ",
"XX%XOXOX@X@X4.=.>.O.Q B a a p - & g E O.R C x l d d u y @ * l z ",
"$X.X!..X~.$.#.=.=.R C A s # = 6 O k R E C l g d u u y # # = u f ",
"XXg.!..XG ' L =.=.E 6 i g y = = 3 f R J l d u y y y 6 # 4 p L f ",
"h.!.OX( ' 1.m R E W J d g g d d g J J z g y i i y y y = L I.:X&.",
"XX;X) R.^.i.M 0 m V J l l l l z R R z d i 6 6 6 4 d z E H.`.:X-X",
";X<.d./.oXd.2.0 5 8 b g g f l l C z f i 6 6 6 3 8 V #.J.).*X-X*X",
"u.e.;X#XT.u.t.} 0 > 8 f f f y f f i 6 6 4 3 & 3 G 1.J.(.=X*X`.`.",
" .R.@XXX+X~.u..._ 9 : 3 > > - 3 - - & 3 > 7 _ t.~.oX#X#X/.(.).Y.",
"| p.%Xu.f.XXoXg.h.j.` X . X 1 % . % 2 ) y.g.XXXX~.~.T.R.K.U.U.n.",
"@X>X%X.X6.t.d. .| t 1 1 1 2 $ 2 w _ t.f.h.f.f.s.s.a.a.a.J.K.I.7."
};
