/* XPM */
static char *_f200953d87445c281a39bc0bf67ce70zUCCfSJSykmTggDe[] = {
/* columns rows colors chars-per-pixel */
"32 32 199 2 ",
"   c #34a853",
".  c #15181B",
"X  c #202226",
"o  c #272A2E",
"O  c #25272A",
"+  c #121B1B",
"@  c #212427",
"#  c #26282C",
"$  c #4A4B50",
"%  c #383A3E",
"&  c #12161B",
"*  c #14171A",
"=  c #212327",
"-  c #323437",
";  c #45474B",
":  c #424348",
">  c #333539",
",  c #323337",
"<  c #39393E",
"1  c #2B2D31",
"2  c None",
"3  c #14171B",
"4  c #3B3D41",
"5  c #24272A",
"6  c #1B1E21",
"7  c #1F2125",
"8  c #1A1D21",
"9  c #15171A",
"0  c #2F3135",
"q  c #404145",
"w  c #3C3D42",
"e  c #1C1F21",
"r  c #0D0F11",
"t  c #140C07",
"y  c #3D3F43",
"u  c #3E3F43",
"i  c #3D3E42",
"p  c #292B2F",
"a  c #37373C",
"s  c #202225",
"d  c #120D0B",
"f  c #4F3421",
"g  c #4A311F",
"h  c #412918",
"j  c #1A1B1E",
"k  c #343539",
"l  c #2A2B2F",
"z  c #3E4045",
"x  c #17191B",
"c  c #49311F",
"v  c #472D1B",
"b  c #785537",
"n  c #694A30",
"m  c #4D321D",
"M  c #533824",
"N  c #1C130D",
"B  c #232529",
"V  c #2D2F33",
"C  c #382417",
"Z  c #64462D",
"A  c #6B4C31",
"S  c #735134",
"D  c #393A3E",
"F  c #2F3034",
"G  c #202226",
"H  c #282A2E",
"J  c #282B30",
"K  c #201710",
"L  c #5A3D27",
"P  c #6C4D32",
"I  c #735235",
"U  c #5F422A",
"Y  c #1D150F",
"T  c #262C31",
"R  c #14171A",
"E  c #414247",
"W  c #32383E",
"Q  c #38322D",
"!  c #61462F",
"~  c #6F4E33",
"^  c #6A4B31",
"/  c #60442D",
"(  c #332E2B",
")  c #414950",
"_  c #28292D",
"`  c #2A2D31",
"'  c #383D43",
"]  c #373839",
"[  c #573F2A",
"{  c #654931",
"}  c #35393C",
"|  c #141516",
" . c #373C41",
".. c #262A2D",
"X. c gray8",
"o. c #070809",
"O. c #25211E",
"+. c #2E3134",
"@. c #3C4248",
"#. c #60462F",
"$. c #6D4E32",
"%. c #563E2A",
"&. c #303336",
"*. c #18191A",
"=. c black",
"-. c #3A3C40",
";. c #3A271A",
":. c #342D27",
">. c #704F33",
",. c #2E2C2B",
"<. c #313236",
"1. c #191C1F",
"2. c #523622",
"3. c #6F4F34",
"4. c #2F2924",
"5. c #363738",
"6. c #33281E",
"7. c #271E17",
"8. c #352A20",
"9. c #58402B",
"0. c #4D3220",
"q. c #36363B",
"w. c #2D2F32",
"e. c #202223",
"r. c #393D41",
"t. c #563A23",
"y. c #4E3320",
"u. c #25272B",
"i. c #181A1E",
"p. c #442C1C",
"a. c #5C412A",
"s. c #523A25",
"d. c #1C1D1E",
"f. c #393C3E",
"g. c #606061",
"h. c #676767",
"j. c #494C4F",
"k. c #34373B",
"l. c #46474C",
"z. c #222428",
"x. c #362215",
"c. c #342518",
"v. c #2F2115",
"b. c #1E1F20",
"n. c #545658",
"m. c gray20",
"M. c #7A7B7C",
"N. c #4D4E53",
"B. c #553D27",
"V. c #463120",
"C. c #414448",
"Z. c #35353A",
"A. c #4D3723",
"S. c #767778",
"D. c #313438",
"F. c #414246",
"G. c #463220",
"H. c #3B2A1B",
"J. c #5D5F61",
"K. c #1F2021",
"L. c #4B4D52",
"P. c #43301F",
"I. c #3E2C1C",
"U. c #3A281A",
"Y. c #282C2E",
"T. c #2D3033",
"R. c #26292B",
"E. c #7C5839",
"W. c #473525",
"Q. c #393F45",
"!. c #34383C",
"~. c #292B2D",
"^. c #242628",
"/. c #483626",
"(. c #303236",
"). c #5C432E",
"_. c #30261D",
"`. c #4D3827",
"'. c #2B221D",
"]. c #2F3438",
"[. c #363B40",
"{. c #443324",
"}. c #383E44",
"|. c #111213",
" X c #0B0C0D",
".X c #070707",
"XX c #484A4E",
"oX c #2C3237",
"OX c #3E3125",
"+X c #48382A",
"@X c #27292B",
"#X c #25282B",
"$X c #412F21",
"%X c #3B2B1F",
"&X c #222427",
"*X c #3A3B3F",
"=X c #38383D",
"-X c #432A1A",
";X c #402819",
/* pixels */
"                                                                ",
"                      . . X o o o O . .                         ",
"                  + . o @ # $ $ $ % @ o . &                     ",
"                * = - ; : > , < , 1 : ; - 2 *                   ",
"              3 4 > , < 5 @ 6 7 6 8 5 < , 1 4 *                 ",
"          + 9 0 q w e r t t t t t t t r e y u i 9 &             ",
"        + X o p a s d t f g g h f g g t d j k l o O +           ",
"        = % ; z x d c v b n n m b n n v M N x 4 4 1 =           ",
"        B u < V d C Z m b n n m b A A m S c d o D F G           ",
"      * z H l J K L A m b n n m b P I m b U Y T l p z R         ",
"      * E z 8 W Q ! ~ m b ^ ^ m b P I m b / ( ) 8 > E R         ",
"      * _ i 5 ` ' ] [ m b P P m b P I m { ( ' } 5 E _ R         ",
"      * 4 7 7 | }  ...m b P P m b P I m ..) } X.7 l 4 R         ",
"      * E z 8 o.O.+.@...#.A $.m b n %...@.&.*.=.8 > E R         ",
"      * k -.# o.;.:.&.) ( %.>.m b / ( ) &.,.Y =.o $ < R         ",
"      * <._ 1.o.2.3.4.} ' 5.6.7.8.( ' } 4.9.0.=.5 E q.R         ",
"      * 7 < B o.2.b n X.w.e.r.r.r.w.w.X.t.P y.=.B i 7 R         ",
"      * z u.i.o.p.a.s.m d.f.g.h.g.j.e.m b P y.=.8 o k.R         ",
"      * E l.z.o.x.c.v.m b.n.m.=.m.M.e.m b A 0.=.o N.V R         ",
"      * < ; o o.2.B.V.m e.C.g.=.g.j.e.m b n g =.5 E q.R         ",
"      * Z.< B o.2.B.A.m e.} S.=.S.D.e.m b n g =.7 < F.R         ",
"      * 5 o 8 o.p.G.H.m e.} J.m.J.&.K.m b n g =.8 o 5 R         ",
"      * E L.o o.x.P.I.U.Y.+.D.M.D.T.R.U.b n g =.o N.E R         ",
"      * < ; o o.2.E.W.Q.!.~.e.e.e.^.!.Q./.n g =.8 (.< R         ",
"      * Z.< B o.2.).Q.T.w._.n m b `.w.T.Q._.g =.B - l R         ",
"      * 0 l 6 o.'.].[.w./.^ ^ m b ^ {.w.[.}.|.=.6 l 0 R         ",
"      * 5 o 8  X].@.+.7.b A $.m b P P 7.+.[.]..X8 o 5 R         ",
"      * i XXo oX[.+.OXm b n >.m b P P m +X@X[.Q.o L.i R         ",
"      * l o o #Xw._.n m b n >.m b P P m b `.w.T.o $ < R         ",
"      * # < B 5 $Xb n m b n n m b n n m b A %Xw.&X*X=XR         ",
"      * 7 G 1. X-Xf g h f g g h f g g h f g ;X.Xi.7 &XR         ",
"                                                                "
};
