/* XPM */
static char *_d6d0188f58a45b8d4ffa373b609cf73F30KA0xFwayvf5m3[] = {
/* columns rows colors chars-per-pixel */
"32 32 187 2 ",
".  c #FEC85C",
"X  c #FFC75B",
"o  c #FFC75A",
"O  c #FFC75A",
"+  c #FFC75A",
"@  c #FFC75A",
"#  c #FFC75A",
"$  c #FFC75B",
"%  c #FEC85D",
"&  c #FCCB66",
"*  c #FFC75A",
"=  c #FFC759",
"-  c #FFC759",
";  c #FFC95B",
":  c #FFCA5C",
">  c #FFC85A",
",  c #FFC759",
"<  c #FFC75A",
"1  c #FFC75D",
"2  c #FDC860",
"3  c #FFC75A",
"4  c None",
"5  c #FEC65B",
"6  c #FBAF56",
"7  c #F9A051",
"8  c #F8964D",
"9  c #F8984D",
"0  c #F8984E",
"q  c #F9A352",
"w  c #FCBB59",
"e  c #FFC759",
"r  c #FFC75B",
"t  c #FEC85D",
"y  c #FFC75A",
"u  c #FEC35B",
"i  c #F99D50",
"p  c #FA994A",
"a  c #FA9A4A",
"s  c #FBA851",
"d  c #FEC459",
"f  c #FB9F4C",
"g  c #F8924A",
"h  c #FAA955",
"j  c #FFC75A",
"k  c #FFC759",
"l  c #FFC75B",
"z  c #FFC75A",
"x  c #FFC759",
"c  c #FEC55B",
"v  c #FA9F4F",
"b  c #FBA24E",
"n  c #FEBE58",
"m  c #FEBA55",
"M  c #FBA24D",
"N  c #F9974A",
"B  c #FAAD57",
"V  c #FFC75A",
"C  c #FFC75A",
"Z  c #FBB458",
"A  c #FAA04F",
"S  c #FEC35A",
"D  c #FEBD57",
"F  c #FBAD55",
"G  c #FDBD58",
"H  c #FFC458",
"J  c #FAA150",
"K  c #FA9A4B",
"L  c #F9964B",
"P  c #FDC05B",
"I  c #FFC759",
"U  c #FFC75C",
"Y  c #FEC85D",
"T  c #FFC759",
"R  c #FFC95D",
"E  c #FA9E4D",
"W  c #FA9D4E",
"Q  c #FAA355",
"!  c #FAA759",
"~  c #FEC75D",
"^  c #FDB759",
"/  c #FAA458",
"(  c #F9A056",
")  c #FAA856",
"_  c #FAA659",
"`  c #FA9B4C",
"'  c #FBB058",
"]  c #FFC759",
"[  c #FECB60",
"{  c #FFC85A",
"}  c #FEC35C",
"|  c #FA9E50",
" . c #FBBA62",
".. c #FED166",
"X. c #FCB95C",
"o. c #FAA456",
"O. c #F9A152",
"+. c #FFC95C",
"@. c #FFC759",
"#. c #FEDD74",
"$. c #FED86C",
"%. c #FDC663",
"&. c #F9A257",
"*. c #FAAE5D",
"=. c #FDD06C",
"-. c #FED46C",
";. c #FBB861",
":. c #F9A053",
">. c #FFCC5E",
",. c #FEDD74",
"<. c #FEDD72",
"1. c #FDD16D",
"2. c #F9A458",
"3. c #FCC162",
"4. c #FECE64",
"5. c #FBAD5A",
"6. c #FAAC5B",
"7. c #FFCB5E",
"8. c #FEDD75",
"9. c #FEDB70",
"0. c #FEDA71",
"q. c #FAA85A",
"w. c #FBB05D",
"e. c #FCBF65",
"r. c #FAA95A",
"t. c #FED66B",
"y. c #FCB75F",
"u. c #FCBE64",
"i. c #FFC759",
"p. c #FFC75A",
"a. c #FCC165",
"s. c #FAAC5C",
"d. c #FEDB71",
"f. c #FCC366",
"g. c #FDD66F",
"h. c #FEDA70",
"j. c #FBAF5D",
"k. c #FECB64",
"l. c #FFC75C",
"z. c #FFC75A",
"x. c #FFC85A",
"c. c #FECD63",
"v. c #F9A85A",
"b. c #FCC869",
"n. c #FEDC71",
"m. c #FCC467",
"M. c #FAAD5C",
"N. c #FFCD60",
"B. c #FFC85A",
"V. c #FBCC6B",
"C. c #FFD269",
"Z. c #FED368",
"A. c #FFD164",
"S. c #FDD06A",
"D. c #FAAB5B",
"F. c #FDD46E",
"G. c #FAAA5B",
"H. c #FAA75A",
"J. c #FCBB63",
"K. c #FED76B",
"L. c #FFD368",
"P. c #FDDD78",
"I. c #FEDD73",
"U. c #FEDD72",
"Y. c #FBAE5D",
"T. c #FAA559",
"R. c #F99F56",
"E. c #FBB35F",
"W. c #FDCC6A",
"Q. c #FED569",
"!. c #FFCF62",
"~. c #FFCB5F",
"^. c #FFDD75",
"/. c #FEDD73",
"(. c #FEDD72",
"). c #FEDD72",
"_. c #FED76F",
"`. c #FED66F",
"'. c #FED870",
"]. c #FEDD72",
"[. c #FEDD74",
"{. c #FDDE78",
"}. c #FEDD75",
"|. c #FEDD73",
" X c #FEDD72",
".X c #FEDD72",
"XX c #FEDD73",
"oX c #FEDD76",
/* pixels */
"                                                                ",
"                                                                ",
"                                                                ",
"                                                                ",
"                                                                ",
"                                                                ",
"                                                                ",
"                        . X o O + @ # $ %                       ",
"                    & * = - - ; : > - , < 1                     ",
"                  2 3 4 5 6 7 8 9 0 q w > e r                   ",
"                t y - u i p a s d f a g h j k l                 ",
"                z x c v a a b n - m M a N B > V                 ",
"                C - Z a a A S D F G H J K L P I U               ",
"              Y T R E W Q ! ~ ^ / ( ) _ Q ` ' - ]               ",
"              [ { } | _ _ /  ...X.! _ _ _ o.O.+.@.              ",
"              #.$.%._ _ _ _ &.*.=.-.;._ _ _ :.>.@.              ",
"              ,.<.1._ _ _ _ _ / 2.3.4.5._ _ 6.7.@.              ",
"              8.9.0.q._ _ w.e.! _ r.t.y._ _ u.> i.              ",
"                p.7.a._ _ s.d.=.f.g.h.j._ q.k.4 l.              ",
"                z.x.c.w._ / v.b.n.m.M._ _ f.N.B.V.              ",
"                C.Z.A.S.j._ _ D.F.G._ H.J.t.K.L.                ",
"                  P.I.U.0.e.Y.T.R.G.E.W.Q.!.~.                  ",
"                    ^./.(.).d._.`.'.).).].[.{.                  ",
"                        }.|. X X X X.XXXoX                      ",
"                                                                ",
"                                                                ",
"                                                                ",
"                                                                ",
"                                                                ",
"                                                                ",
"                                                                ",
"                                                                "
};
