/* XPM */
static char *_cb25446ff91467985eb34d510f573e47CmQ7wyNId1vkveh[] = {
/* columns rows colors chars-per-pixel */
"32 32 120 2 ",
"   c #34a853",
".  c #040302",
"X  c #0B0704",
"o  c #0D0906",
"O  c #060708",
"+  c #080708",
"@  c #07090A",
"#  c #0D0C0B",
"$  c #110B07",
"%  c #140E08",
"&  c #15100C",
"*  c #1C140C",
"=  c #0E0F10",
"-  c #131416",
";  c #15171A",
":  c #17191C",
">  c #1A1B1E",
",  c #20170E",
"<  c #24190F",
"1  c #251A11",
"2  c #2B1E13",
"3  c #2E2115",
"4  c #2B2018",
"5  c #322316",
"6  c #392617",
"7  c #362619",
"8  c #37281A",
"9  c #3B2A1C",
"0  c #1C1E21",
"q  c #1F2125",
"w  c #212326",
"e  c #242529",
"r  c #27292D",
"t  c #292A2E",
"y  c #2C2E32",
"u  c #2E3034",
"i  c #313236",
"p  c #34363A",
"a  c #333539",
"s  c #35383B",
"d  c #36383C",
"f  c #37383C",
"g  c #36383D",
"h  c #36393D",
"j  c #37393D",
"k  c #37393E",
"l  c #37383C",
"z  c #38383D",
"x  c #39393E",
"c  c #383A3E",
"v  c #393B3F",
"b  c #3A3B3F",
"n  c #3A3B3F",
"m  c #422D1B",
"M  c #422F1E",
"N  c #43301F",
"B  c #44301F",
"V  c #47301F",
"C  c #4C321F",
"Z  c #453120",
"A  c #473321",
"S  c #473220",
"D  c #4A3220",
"F  c #4B3220",
"G  c #4C3320",
"H  c #493421",
"J  c #493522",
"K  c #4A3522",
"L  c #4B3522",
"P  c #4B3623",
"I  c #4D3420",
"U  c #4E3724",
"Y  c #4B3320",
"T  c #4F3823",
"R  c #4E3824",
"E  c #503520",
"W  c #533821",
"Q  c #503924",
"!  c #513925",
"~  c #523A25",
"^  c #533B25",
"/  c #533B26",
"(  c #543B25",
")  c #553B27",
"_  c #553D27",
"`  c #563D27",
"'  c #563B26",
"]  c #573E28",
"[  c #573F28",
"{  c #573F29",
"}  c #593E28",
"|  c #593F28",
" . c #583F29",
".. c #594029",
"X. c #5B4029",
"o. c #5C4129",
"O. c #5D422A",
"+. c #5D412A",
"@. c #3A3C40",
"#. c #3B3C41",
"$. c #3A3D41",
"%. c #3B3D41",
"&. c #3E3F43",
"*. c #3E3F44",
"=. c #3E4044",
"-. c #3F4045",
";. c #3F4145",
":. c #404145",
">. c #404146",
",. c #404246",
"<. c #414247",
"1. c #434549",
"2. c #444549",
"3. c #44454A",
"4. c #45474B",
"5. c #46474C",
"6. c #424448",
"7. c #47484D",
"8. c #494B4F",
"9. c #484A4F",
/* pixels */
"                                                                ",
"                          w t y y r                             ",
"                      t y y <.1.1.a e y e                       ",
"                q e u v =.i u p i y d *.p y w                   ",
"              q d d i i e 0 > 0 > > w y i y %.t                 ",
"            ; y =.*.r ; O . . . . . o = : %.=.a q               ",
"          t u y i w # .         . , 5 2 1 ; y y u t             ",
"          p <.d w -             X 3 N K M * > i %.u e           ",
"        e p v t =               * 7 A U K m 4 w p u r           ",
"      w u u y > O             X < 7 V R T E 9 : t y i y         ",
"      q i %.r @             . & 7 5 9 R ' W D & ; d %.r         ",
"      > e v u @             . % 7 3 9 K ! W D & > &.y q         ",
"      q y i e @             . % 5 3 8 A ! 6 5 # ; y a t         ",
"      q i v e @             . % 5 3 9 K K $ o @ ; p v t         ",
"      0 r p u @             . % 5 3 9 ! ! 2 2 # 0 8.p e         ",
"      0 e y e @             . % 3 3 9 ` } G D & > <.y w         ",
"      > e y e @             . % 3 3 9 ` o.I D & > p t 0         ",
"      q u i e @             . % 3 3 9 ] o.I D & : p y q         ",
"      q i =.y @             . $ * 2 9 ] X.G D & 0 2.i q         ",
"      0 y 2.p @             . $ X 2 9 ] } G D & > <.i e         ",
"      0 e i r @             . $ X 2 9 ] } G D & ; i u e         ",
"      0 r s t @             . % , 2 9 ] } G D & > d u w         ",
"      0 y 2.a @             . % 3 3 9 ] } G D & 0 5.d e         ",
"      0 y 1.p @             . % 5 3 9 ] } G D & - y p e         ",
"      0 y v y @             . % 3 3 9 ] ' 5 5 # : u y e         ",
"      0 r y e @             . % 3 3 9 ] ! o X + ; y t e         ",
"      0 t v y @             . % 3 3 9 X.} 5 3 # > %.i e         ",
"      0 y 1.a @               o * 1 9 } o.C V & 0 8.d e         ",
"      0 e a u @                 . o , A ' I D & 0 7.p e         ",
"      : w p y @                     . * 1 C D & > v a e         ",
"                                                                ",
"                                                                "
};
