/* XPM */
static char *_7a3816ae1864a9ef136b1c602f2e2casFHoviIo89HzM39y[] = {
/* columns rows colors chars-per-pixel */
"32 32 231 2 ",
"   c #34a853",
".  c #090707",
"X  c #090807",
"o  c #0A0807",
"O  c #0B0909",
"+  c #0B0A09",
"@  c #0C0908",
"#  c #0D0B08",
"$  c #0D0B0B",
"%  c #0E0C0B",
"&  c #100B08",
"*  c #100A0A",
"=  c #120C08",
"-  c #140D09",
";  c #100D0C",
":  c #110D0C",
">  c #110E0C",
",  c #120F0D",
"<  c #130F0D",
"1  c #120F0E",
"2  c #150D0C",
"3  c #170E0F",
"4  c #190E0D",
"5  c #180E0F",
"6  c #180F0F",
"7  c #1F0F0D",
"8  c #16100D",
"9  c #16110F",
"0  c #1B110B",
"q  c #1A110E",
"w  c #1D140F",
"e  c #0F0D10",
"r  c #140F10",
"t  c #150F12",
"y  c #190F10",
"u  c #0E111F",
"i  c #171210",
"p  c #171310",
"a  c #1A1010",
"s  c #1B1111",
"d  c #181210",
"f  c #1B1210",
"g  c #1C1113",
"h  c #1E1313",
"j  c #191411",
"k  c #1E1713",
"l  c #1D1214",
"z  c #1E1214",
"x  c #1D1714",
"c  c #1F1417",
"v  c #1E1815",
"b  c #131218",
"n  c #1A161B",
"m  c #25110E",
"M  c #25110F",
"N  c #21160F",
"B  c #2A130F",
"V  c #201111",
"C  c #241211",
"Z  c #221711",
"A  c #201413",
"S  c #231412",
"D  c #251613",
"F  c #231517",
"G  c #251517",
"H  c #271616",
"J  c #281714",
"K  c #281616",
"L  c #2E1714",
"P  c #2F1716",
"I  c #221815",
"U  c #241A14",
"Y  c #251B15",
"T  c #261816",
"R  c #241B17",
"E  c #261C16",
"W  c #281A13",
"Q  c #2A1A13",
"!  c #281B14",
"~  c #291B14",
"^  c #291B16",
"/  c #2C1915",
"(  c #2F1E14",
")  c #2F1F17",
"_  c #221418",
"`  c #22171A",
"'  c #271719",
"]  c #23161C",
"[  c #251919",
"{  c #25181B",
"}  c #231C18",
"|  c #241C18",
" . c #261D18",
".. c #271E19",
"X. c #271F1B",
"o. c #291818",
"O. c #2B1918",
"+. c #2B1A18",
"@. c #28181A",
"#. c #2A181A",
"$. c #2B191A",
"%. c #2C191A",
"&. c #2E1B1B",
"*. c #281C18",
"=. c #2D1B1E",
"-. c #311B13",
";. c #301D13",
":. c #301F15",
">. c #321F14",
",. c #301F17",
"<. c #391814",
"1. c #3A1814",
"2. c #3D1A16",
"3. c #36161D",
"4. c #351B1B",
"5. c #311B1C",
"6. c #321C1D",
"7. c #351E1C",
"8. c #351F1C",
"9. c #371D1E",
"0. c #371D1F",
"q. c #381A18",
"w. c #3B1A18",
"e. c #3D1F1F",
"r. c #2D2018",
"t. c #2D201A",
"y. c #2E211A",
"u. c #332218",
"i. c #39201B",
"p. c #3A2519",
"a. c #39261B",
"s. c #3B261A",
"d. c #3A261B",
"f. c #3D271A",
"g. c #39201E",
"h. c #39231E",
"j. c #3C221D",
"k. c #3E231E",
"l. c #3F241F",
"z. c #0E1220",
"x. c #121220",
"c. c #141320",
"v. c #151420",
"b. c #181520",
"n. c #1B1823",
"m. c #271A21",
"M. c #2D1B20",
"N. c #2C1F20",
"B. c #291D24",
"V. c #361B21",
"C. c #331C22",
"Z. c #341F20",
"A. c #3E1F20",
"S. c #20202B",
"D. c #25222D",
"F. c #372320",
"G. c #352424",
"H. c #3F2620",
"J. c #3A2327",
"K. c #3A2626",
"L. c #3E2925",
"P. c #3A312F",
"I. c #242330",
"U. c #252437",
"Y. c #262C3C",
"T. c #2A2938",
"R. c #411B17",
"E. c #421B17",
"W. c #401B18",
"Q. c #461E1A",
"!. c #43201F",
"~. c #40241F",
"^. c #45251F",
"/. c #4B211D",
"(. c #4D211D",
"). c #4D221F",
"_. c #4F221F",
"`. c #40291B",
"'. c #53231F",
"]. c #54221D",
"[. c #59241E",
"{. c #442226",
"}. c #412524",
"|. c #472625",
" X c #4C2220",
".X c #422820",
"XX c #462822",
"oX c #452A24",
"OX c #442C25",
"+X c #4A2F27",
"@X c #512320",
"#X c #592520",
"$X c #5C2621",
"%X c #502D29",
"&X c #4F3129",
"*X c #573629",
"=X c #58312A",
"-X c #5B322B",
";X c #43323C",
":X c #612721",
">X c #79262C",
",X c #643A33",
"<X c #673B38",
"1X c #753A3B",
"2X c #704A33",
"3X c #704B38",
"4X c #724C38",
"5X c #764B3C",
"6X c #7E4B3E",
"7X c #7C4F3C",
"8X c #353449",
"9X c #35344A",
"0X c #3F3C54",
"qX c #6D4241",
"wX c #756050",
"eX c #823538",
"rX c #8A593F",
"tX c #955E46",
"yX c #8B5E58",
"uX c #A44948",
"iX c #AB5550",
"pX c #A3654E",
"aX c #B17254",
"sX c #BF7B59",
"dX c #937364",
"fX c #C77A61",
"gX c #9D896D",
"hX c #A18C71",
"jX c #E79668",
"kX c #ED986C",
"lX c #EF996D",
/* pixels */
"                                                                ",
"                          J g.7.                                ",
"                        2 Z.Z.}.k.                              ",
"                      X f +.g.*X.X.                             ",
"                      + : *.4X3X2X                              ",
"                        ~ aXjXsXrX                              ",
"                          tXlXlX6X                              ",
"                        / 7XfX5XoX                              ",
"                      i.+XwXeX{.F.                              ",
"                  B P k.OXhXuXqXL.7.                            ",
"                  2.(.D &XgXiXdXP.%X&                           ",
"                  q.%.~.-X[ >X1XG.XXA                           ",
"                7 4.f +.-X_ V.3.C.l.%.                          ",
"                E.(.6 c K.n B.m.M.Y +.                          ",
"                '.(.W.] U.9X0X9XT.I.c.v.x.u z.z.Y.S.            ",
"              y !.$X:X].q.J.yX;XS.D.z |.^.+                     ",
"                6 J 5.6.+.H.pXN.b n.+.<X,X                      ",
"                    6 V 2 m H _ e b.H C                         ",
"                    Q. X' r [ +.q r F                           ",
"                    [.e.h y.I ~ ..f z                           ",
"                  m #X7.A p...Y ..c h                           ",
"                  1.@X=.Q y.: : } Y h                           ",
"                  E.A.=.Q k # % v ~ h                           ",
"                  1./.7.A : . X i ) f                           ",
"                    -.P 9       i p.-                           ",
"                  0 p...#       v y.&                           ",
"                  N p.Y       : ..)                             ",
"                  ;.`.9       : ..:.                            ",
"                  :.f.:       : ..u.                            ",
"                  :.E           j ~ =                           ",
"                  w :           # + .                           ",
"                                                                "
};
