/* XPM */
static char *_a8da31b9eb54720ca32e65ae832ddf43X7baxHsP1lwrKfL[] = {
/* columns rows colors chars-per-pixel */
"32 32 3 1 ",
"  c #33A953",
". c #34A853",
"X c #36A853",
/* pixels */
".......................... .....",
".................. .............",
"...................... .........",
"................ ...............",
"................ ...............",
"...................... .........",
".................. .............",
"............................. ..",
"....... ........................",
".... ..................... .....",
"....... ........................",
".. ........................ ....",
"..... .................... .....",
"...... .........................",
"... ..................... . ....",
"...... ................... .....",
" ...............................",
"... . ..........................",
" . . . .........................",
" ...............................",
"... . ..........................",
"................................",
"  ..............................",
".... ...........................",
".......... ...  ................",
"........ ... ................. .",
"........ ... ...................",
".......... .....................",
".......... ................ ....",
".......................... .....",
"............................. ..",
"......... ................ ....."
};
