/* XPM */
static char *_7a371b2ddb641acd1c918524af53804fnOpo9N6U2TceHWq[] = {
/* columns rows colors chars-per-pixel */
"32 32 142 2 ",
"   c #A43D27",
".  c #A43E28",
"X  c #A93E2C",
"o  c #A44029",
"O  c #A9462F",
"+  c #B64B2B",
"@  c #A84530",
"#  c #AA4E39",
"$  c #AD523F",
"%  c #B95233",
"&  c #C3462A",
"*  c #CA552A",
"=  c #C54D32",
"-  c #CC5C33",
";  c #CA583E",
":  c #D0663F",
">  c #B15643",
",  c #BF5D42",
"<  c #B76857",
"1  c #BF7768",
"2  c #C95941",
"3  c #CF6440",
"4  c #CF6C43",
"5  c #CD634B",
"6  c #D16B43",
"7  c #D3714A",
"8  c #CF6A53",
"9  c #D26F5A",
"0  c #D67A55",
"q  c #D2735E",
"w  c #D77C5A",
"e  c #D87F5D",
"r  c #D27661",
"t  c #D57965",
"y  c #D87F61",
"u  c #D57F6A",
"i  c #C37F72",
"p  c #D6825D",
"a  c #D8825F",
"s  c #CC816B",
"d  c #DA8564",
"f  c #D78A6C",
"g  c #DA896B",
"h  c #C48073",
"j  c #CF8875",
"k  c #C88479",
"l  c #CF8E7A",
"z  c #D08C77",
"x  c #DC8F72",
"c  c #D08E7E",
"v  c #DB8E7C",
"b  c #CF907F",
"n  c #DE9375",
"m  c #D6937D",
"M  c #DE957A",
"N  c #DF987D",
"B  c #E1977C",
"V  c #E09A7E",
"C  c #CB8D81",
"Z  c #CE9183",
"A  c #D39381",
"S  c #DB9482",
"D  c #D79984",
"F  c #DE9B84",
"G  c #D59C8D",
"H  c #DD9D8A",
"J  c #E09D83",
"K  c #E19E8A",
"L  c #DDA18D",
"P  c #DCA492",
"I  c #DAAB9F",
"U  c #E2A186",
"Y  c #E3A48C",
"T  c #E4A692",
"R  c #E4AA93",
"E  c #E5AD9A",
"W  c #E8AF9B",
"Q  c #E6B29D",
"!  c #E8B39E",
"~  c #DDADA1",
"^  c #DFB1A4",
"/  c #DBB3AB",
"(  c #E3AEA0",
")  c #E4B2A4",
"_  c #EAB7A4",
"`  c #E8B7A6",
"'  c #E9B6A2",
"]  c #E7B8A6",
"[  c #E8B9A7",
"{  c #E9B8A7",
"}  c #E9B9A5",
"|  c #E9B9A5",
" . c #E7B5AA",
".. c #E8B7A8",
"X. c #E7B9A9",
"o. c #E4BAAE",
"O. c #E2B9AD",
"+. c #EABBA9",
"@. c #E9B9AB",
"#. c #EAB9AA",
"$. c #E9BAAA",
"%. c #E8BDAA",
"&. c #EABDAA",
"*. c #E9BEAB",
"=. c #EBBEAB",
"-. c #EABCAC",
";. c #EABCAD",
":. c #EABFAE",
">. c #EABFAF",
",. c #ECBEAE",
"<. c #E9BDAE",
"1. c #E8BCB1",
"2. c #E9BFB1",
"3. c #E9BEB5",
"4. c #EBC0AF",
"5. c #EBC1B3",
"6. c #EAC0B0",
"7. c #ECC1B0",
"8. c #ECC1B1",
"9. c #ECC2B2",
"0. c #EDC3B3",
"q. c #EDC3B5",
"w. c #EDC6B7",
"e. c #EEC7B6",
"r. c #EDC3B3",
"t. c #EDC3BB",
"y. c #EEC9B9",
"u. c #EEC8BB",
"i. c #EEC8BB",
"p. c #F1CBBE",
"a. c #F0CCBE",
"s. c #F1CDBF",
"d. c #E7CCC5",
"f. c #EFCFC4",
"g. c #F0D0C1",
"h. c #F0D0C3",
"j. c #F1D1C4",
"k. c #F0D0C5",
"l. c #F0D2C7",
"z. c #F1D3C8",
"x. c #F2D5CB",
"c. c #F5DAD3",
/* pixels */
"J 6 6 6 6 6 U - * * * * f 2 & & & & r d 6 6 6 6 d w * * * * 6 N ",
"J 6 6 6 6 6 U - * * * * g ; & & & & q a 6 6 6 6 d w * * * * 6 n ",
";.U U U T U 9.J N N F N ' H v v S v E Q U U Y U ! R N N J N Y @.",
"& & & & U 6 6 6 6 6 Y 6 6 6 6 6 J * * * * * c . . . .   D 4 6 6 ",
"& & & & U 6 6 6 6 6 U 6 6 6 6 6 J * * * * * l . . . . . S 6 6 6 ",
"H S S S 2.Y R T Y Y q.Y R T T T 5.F U J F F o.Z A Z Z Z 3.T T R ",
"Y X X X X X k % + + + + s 0 6 6 6 6 x a 6 6 6 6 d g 6 6 6 6 w t ",
"Y X X X X X k % + + + + s 0 6 6 6 6 x a 6 6 6 6 d g 6 6 6 6 w t ",
";.c c c G c ^ D m m L m E R U U E F E R J F R J R E J J E Y R E ",
"6 6 6 6 U 6 6 6 6 6 Y 6 6 6 6 6 S & & & & & n * * * * * J 6 6 6 ",
"6 6 6 6 U 6 6 6 6 6 U 6 6 6 6 6 S & & & & & n * * * * * J 6 6 6 ",
"E T T T 4.T ! Y K K ..K E R T T @.F Y K F F @.J Y H S S ) H P Q ",
"C 6 6 6 6 6 U = & & & & u 0 6 6 6 6 x a 6 6 6 6 d < . . . . > n ",
"C 6 6 6 6 6 U = & & & & u 0 6 6 6 6 x a 6 6 6 6 d < . . . . > n ",
") Y U U ! U _ F S S T S E T Y U ! F R P F F ! U E P A A P A G ! ",
"6 6 6 6 U 6 6 6 6 6 Y 6 6 6 6 6 m + + + + + F 6 6 6 6 6 U 6 6 4 ",
"6 6 6 6 Y 6 6 6 6 6 Y 6 4 6 6 6 A + + + + + F 6 6 6 6 6 Y 4 6 6 ",
"h._ _ ' 9._ p.4.=.=.u.=.a.@.) ) 2.( 2.5.X.X.u.=.r.u.=.=.u.=.9.r.",
"Y * * * * * n 7 6 6 6 6 N ; & & & & q a 6 6 6 6 d g 6 6 6 6 w d ",
"Y * * * * * n 7 6 6 4 6 N ; & & & & q d 6 4 6 6 d g 6 6 6 6 p d ",
"/ I ~ I f.} 9.=.=.=.z.=.9.;.} ] j.} ,.4.=.=.j.! } } ! ! h.=.;.4.",
". . . . H 6 6 6 6 6 U 6 6 6 6 6 U 6 6 6 6 4 V * * * * * J 6 6 6 ",
". . . o L 6 6 6 6 6 Y 6 6 6 6 6 Y 6 6 6 6 6 J * * * * * U 6 6 6 ",
"x.r.9.9.q.9.c./ / / / / d.a.9.9.9.9.z.t. . . . .t.j.9.9.9.9.a.z.",
"S 6 6 6 6 6 U @ . .   . 1 0 6 6 6 6 n 5 & & & & 8 g 6 6 6 6 w n ",
"K 7 7 7 7 7 Y # O O O O i e 7 7 7 7 N 8 = = = = 9 n 7 7 7 7 d V ",
"J J J J r.J F J J J q.J J F J J O.i i h i i o.x x x n x <.j j j ",
"6 6 6 6 U 6 6 6 6 6 U 6 6 6 6 6 b . . . . . m * * * * * m + + + ",
"0 0 0 0 W 0 0 0 0 w E 0 0 0 0 0 G $ $ $ $ $ L : : : : : L , , , ",
"9.s s s s s ~ J N V N N } N g g g g T T N N N N R Q B N N V Y ' ",
"Y + + + + + z 7 6 6 6 6 N 3 * * * * y a 6 6 6 6 d g 4 6 6 6 w n ",
"u.A m A A A O.T Y Y Y Y 9.Y N N N N ! ! Y Y Y Y ' } Y Y Y Y ! ;."
};
